<svg xmlns="http://www.w3.org/2000/svg" width="800" height="420" viewBox="0 0 800 420" fill="none" role="img" aria-label="dissociation signal profile">
  <defs>
    <linearGradient id="bg" x1="80" y1="30" x2="760" y2="390" gradientUnits="userSpaceOnUse">
      <stop stop-color="#07101A"/>
      <stop offset="1" stop-color="#0E1826"/>
    </linearGradient>
    <linearGradient id="line" x1="0" y1="210" x2="800" y2="210" gradientUnits="userSpaceOnUse">
      <stop stop-color="#9be8ff"/>
      <stop offset="1" stop-color="#b7ffe3"/>
    </linearGradient>
    <filter id="noise" x="0" y="0" width="1" height="1">
      <feTurbulence type="fractalNoise" baseFrequency="0.85" numOctaves="2" stitchTiles="stitch"/>
      <feColorMatrix type="saturate" values="0"/>
      <feComponentTransfer>
        <feFuncA type="table" tableValues="0 0.06"/>
      </feComponentTransfer>
    </filter>
  </defs>
  <rect width="800" height="420" rx="24" fill="url(#bg)"/>
  <rect width="800" height="420" rx="24" fill="url(#bg)" filter="url(#noise)"/>
  <g opacity="0.16" stroke="#9be8ff" stroke-width="1">
    <path d="M0 58H800"/>
    <path d="M0 116H800"/>
    <path d="M0 174H800"/>
    <path d="M0 232H800"/>
    <path d="M0 290H800"/>
    <path d="M0 348H800"/>
  </g>
  <path d="M0 176 C120 148 240 210 360 176 C510 134 660 200 800 162" stroke="url(#line)" stroke-width="2.8"/>
  <path d="M0 246 C140 272 260 222 420 246 C560 276 680 224 800 246" stroke="#b7ffe3" stroke-opacity="0.58" stroke-width="1.8"/>
  <g>
    <circle cx="248" cy="126" r="38" stroke="#9be8ff" stroke-opacity="0.6"/>
    <circle cx="248" cy="126" r="12" fill="#9be8ff" fill-opacity="0.22"/>
    <circle cx="184" cy="126" r="3" fill="#9be8ff"/>
    <circle cx="312" cy="126" r="3" fill="#b7ffe3"/>
  </g>
  <g opacity="0.8">
    <rect x="44" y="330" width="712" height="48" rx="8" fill="#060B12" stroke="#9be8ff" stroke-opacity="0.4"/>
    <text x="68" y="360" fill="#9be8ff" font-family="'IBM Plex Mono', monospace" font-size="20" letter-spacing="2">STATE PROFILE // DISSOCIATION</text>
  </g>
</svg>
