<svg xmlns="http://www.w3.org/2000/svg" width="800" height="420" viewBox="0 0 800 420" fill="none" role="img" aria-label="impostor-syndrome signal profile">
  <defs>
    <linearGradient id="bg" x1="80" y1="30" x2="760" y2="390" gradientUnits="userSpaceOnUse">
      <stop stop-color="#07101A"/>
      <stop offset="1" stop-color="#0E1826"/>
    </linearGradient>
    <linearGradient id="line" x1="0" y1="210" x2="800" y2="210" gradientUnits="userSpaceOnUse">
      <stop stop-color="#ffd9af"/>
      <stop offset="1" stop-color="#9ed6ff"/>
    </linearGradient>
    <filter id="noise" x="0" y="0" width="1" height="1">
      <feTurbulence type="fractalNoise" baseFrequency="0.85" numOctaves="2" stitchTiles="stitch"/>
      <feColorMatrix type="saturate" values="0"/>
      <feComponentTransfer>
        <feFuncA type="table" tableValues="0 0.06"/>
      </feComponentTransfer>
    </filter>
  </defs>
  <rect width="800" height="420" rx="24" fill="url(#bg)"/>
  <rect width="800" height="420" rx="24" fill="url(#bg)" filter="url(#noise)"/>
  <g opacity="0.16" stroke="#ffd9af" stroke-width="1">
    <path d="M0 58H800"/>
    <path d="M0 116H800"/>
    <path d="M0 174H800"/>
    <path d="M0 232H800"/>
    <path d="M0 290H800"/>
    <path d="M0 348H800"/>
  </g>
  <path d="M0 152 C120 124 240 186 360 152 C510 110 660 176 800 138" stroke="url(#line)" stroke-width="2.8"/>
  <path d="M0 228 C140 254 260 204 420 228 C560 258 680 206 800 228" stroke="#9ed6ff" stroke-opacity="0.58" stroke-width="1.8"/>
  <g>
    <circle cx="292" cy="126" r="38" stroke="#ffd9af" stroke-opacity="0.6"/>
    <circle cx="292" cy="126" r="12" fill="#ffd9af" fill-opacity="0.22"/>
    <circle cx="228" cy="126" r="3" fill="#ffd9af"/>
    <circle cx="356" cy="126" r="3" fill="#9ed6ff"/>
  </g>
  <g opacity="0.8">
    <rect x="44" y="330" width="712" height="48" rx="8" fill="#060B12" stroke="#ffd9af" stroke-opacity="0.4"/>
    <text x="68" y="360" fill="#ffd9af" font-family="'IBM Plex Mono', monospace" font-size="20" letter-spacing="2">STATE PROFILE // IMPOSTOR SYNDROME</text>
  </g>
</svg>
