<svg xmlns="http://www.w3.org/2000/svg" width="800" height="420" viewBox="0 0 800 420" fill="none" role="img" aria-label="insomnia signal profile">
  <defs>
    <linearGradient id="bg" x1="80" y1="30" x2="760" y2="390" gradientUnits="userSpaceOnUse">
      <stop stop-color="#07101A"/>
      <stop offset="1" stop-color="#0E1826"/>
    </linearGradient>
    <linearGradient id="line" x1="0" y1="210" x2="800" y2="210" gradientUnits="userSpaceOnUse">
      <stop stop-color="#a5f6ff"/>
      <stop offset="1" stop-color="#7db2ff"/>
    </linearGradient>
    <filter id="noise" x="0" y="0" width="1" height="1">
      <feTurbulence type="fractalNoise" baseFrequency="0.85" numOctaves="2" stitchTiles="stitch"/>
      <feColorMatrix type="saturate" values="0"/>
      <feComponentTransfer>
        <feFuncA type="table" tableValues="0 0.06"/>
      </feComponentTransfer>
    </filter>
  </defs>
  <rect width="800" height="420" rx="24" fill="url(#bg)"/>
  <rect width="800" height="420" rx="24" fill="url(#bg)" filter="url(#noise)"/>
  <g opacity="0.16" stroke="#a5f6ff" stroke-width="1">
    <path d="M0 58H800"/>
    <path d="M0 116H800"/>
    <path d="M0 174H800"/>
    <path d="M0 232H800"/>
    <path d="M0 290H800"/>
    <path d="M0 348H800"/>
  </g>
  <path d="M0 182 C120 154 240 216 360 182 C510 140 660 206 800 168" stroke="url(#line)" stroke-width="2.8"/>
  <path d="M0 264 C140 290 260 240 420 264 C560 294 680 242 800 264" stroke="#7db2ff" stroke-opacity="0.58" stroke-width="1.8"/>
  <g>
    <circle cx="234" cy="126" r="38" stroke="#a5f6ff" stroke-opacity="0.6"/>
    <circle cx="234" cy="126" r="12" fill="#a5f6ff" fill-opacity="0.22"/>
    <circle cx="170" cy="126" r="3" fill="#a5f6ff"/>
    <circle cx="298" cy="126" r="3" fill="#7db2ff"/>
  </g>
  <g opacity="0.8">
    <rect x="44" y="330" width="712" height="48" rx="8" fill="#060B12" stroke="#a5f6ff" stroke-opacity="0.4"/>
    <text x="68" y="360" fill="#a5f6ff" font-family="'IBM Plex Mono', monospace" font-size="20" letter-spacing="2">STATE PROFILE // INSOMNIA</text>
  </g>
</svg>
