<svg xmlns="http://www.w3.org/2000/svg" width="800" height="420" viewBox="0 0 800 420" fill="none" role="img" aria-label="paranoia signal profile">
  <defs>
    <linearGradient id="bg" x1="80" y1="30" x2="760" y2="390" gradientUnits="userSpaceOnUse">
      <stop stop-color="#07101A"/>
      <stop offset="1" stop-color="#0E1826"/>
    </linearGradient>
    <linearGradient id="line" x1="0" y1="210" x2="800" y2="210" gradientUnits="userSpaceOnUse">
      <stop stop-color="#8df7e8"/>
      <stop offset="1" stop-color="#ffc46a"/>
    </linearGradient>
    <filter id="noise" x="0" y="0" width="1" height="1">
      <feTurbulence type="fractalNoise" baseFrequency="0.85" numOctaves="2" stitchTiles="stitch"/>
      <feColorMatrix type="saturate" values="0"/>
      <feComponentTransfer>
        <feFuncA type="table" tableValues="0 0.06"/>
      </feComponentTransfer>
    </filter>
  </defs>
  <rect width="800" height="420" rx="24" fill="url(#bg)"/>
  <rect width="800" height="420" rx="24" fill="url(#bg)" filter="url(#noise)"/>
  <g opacity="0.16" stroke="#8df7e8" stroke-width="1">
    <path d="M0 58H800"/>
    <path d="M0 116H800"/>
    <path d="M0 174H800"/>
    <path d="M0 232H800"/>
    <path d="M0 290H800"/>
    <path d="M0 348H800"/>
  </g>
  <path d="M0 132 C120 104 240 166 360 132 C510 90 660 156 800 118" stroke="url(#line)" stroke-width="2.8"/>
  <path d="M0 208 C140 234 260 184 420 208 C560 238 680 186 800 208" stroke="#ffc46a" stroke-opacity="0.58" stroke-width="1.8"/>
  <g>
    <circle cx="302" cy="126" r="38" stroke="#8df7e8" stroke-opacity="0.6"/>
    <circle cx="302" cy="126" r="12" fill="#8df7e8" fill-opacity="0.22"/>
    <circle cx="238" cy="126" r="3" fill="#8df7e8"/>
    <circle cx="366" cy="126" r="3" fill="#ffc46a"/>
  </g>
  <g opacity="0.8">
    <rect x="44" y="330" width="712" height="48" rx="8" fill="#060B12" stroke="#8df7e8" stroke-opacity="0.4"/>
    <text x="68" y="360" fill="#8df7e8" font-family="'IBM Plex Mono', monospace" font-size="20" letter-spacing="2">STATE PROFILE // PARANOIA</text>
  </g>
</svg>
